<svg xmlns="http://www.w3.org/2000/svg" viewBox="0 0 62 61" fill="none"> <g style="mix-blend-mode:difference"> <path d="M52.1475 0.928235C55.28875 -0.88332 59.3055 0.19173775 61.119 3.32945C62.9325 6.46715 61.85625 10.479325 58.71525 12.290875L56.7195 13.441775C55.211 14.311725 54.11025 15.7446 53.6595 17.425175L52.9025 20.246825C52.45175 21.927425 52.68775 23.718075 53.55875 25.22475L54.71325 27.22225C56.52675 30.36 55.4505 34.37225 52.30925 36.18375C49.16825 37.99525 45.1515 36.92025 43.338 33.7825C41.52425 30.64475 42.6005 26.63275 45.74175 24.821125L47.7245 23.67775C49.233 22.8078 50.3335 21.374925 50.7845 19.694325L51.54675 16.852175C51.99775 15.171575 51.76175 13.380925 50.89075 11.87415L49.74375 9.889675C47.93025 6.75195 49.0065 2.7398 52.1475 0.928235Z" fill="#CDCDC8"></path> <path d="M9.920425 60.12C6.7792 61.9315 2.762575 60.8565 0.9490025 57.71875C-0.8645725 54.581 0.21167925 50.569 3.352875 48.75725L5.348525 47.6065C6.856975 46.7365 7.957675 45.30375 8.4085 43.623L9.1654 40.8015C9.616225 39.12075 9.3802 37.33025 8.5093 35.8235L7.354775 33.826C5.5412 30.68825 6.61745 26.676 9.75865 24.864475C12.89985 23.0529 16.9165 24.127975 18.730075 27.26575C20.54365 30.4035 19.4674 34.4155 16.3262 36.227L14.343575 37.3705C12.835125 38.2405 11.7344 39.67325 11.2836 41.354L10.5212 44.196C10.070375 45.87675 10.306375 47.66725 11.1773 49.174L12.3243 51.1585C14.137875 54.29625 13.061625 58.3085 9.920425 60.12Z" fill="#CDCDC8"></path> <path d="M61.119 57.71875C59.3055 60.8565 55.28875 61.9315 52.1475 60.12C49.0065 58.3085 47.93025 54.29625 49.74375 51.1585L50.893 49.17C51.764 47.66325 52 45.8725 51.54925 44.192L50.7885 41.35625C50.33775 39.67575 49.237 38.24275 47.7285 37.373L45.74175 36.227C42.60075 34.4155 41.52425 30.4035 43.338 27.26575C45.1515 24.127975 49.16825 23.052925 52.30925 24.864475C55.4505 26.676 56.52675 30.68825 54.71325 33.826L53.561 35.81925C52.69025 37.326 52.45425 39.11675 52.905 40.79725L53.66375 43.6255C54.1145 45.306 55.21525 46.739 56.72375 47.60875L58.71525 48.75725C61.85625 50.569 62.9325 54.581 61.119 57.71875Z" fill="#CDCDC8"></path> <path d="M0.8809825 3.2812C2.69455 0.14349775 6.7112 -0.93156 9.8524 0.8799975C12.9936 2.69155 14.06985 6.703725 12.256275 9.841425L11.106875 11.830025C10.235975 13.3368 9.999975 15.12745 10.450775 16.80805L11.21145 19.6437C11.66225 21.3243 12.762975 22.757175 14.271425 23.627125L16.258175 24.7729C19.399375 26.5845 20.475625 30.5965 18.66205 33.73425C16.848475 36.872 12.83185 37.947 9.69065 36.1355C6.549425 34.324 5.473175 30.31175 7.28675 27.174L8.4389 25.18075C9.3098 23.673975 9.5458 21.883325 9.095 20.202725L8.33635 17.374575C7.885525 15.693975 6.784825 14.2611 5.276375 13.39115L3.28485 12.24265C0.143661 10.431075 -0.93259 6.4189 0.8809825 3.2812Z" fill="#CDCDC8"></path> <path d="M30.838 6.28225C34.465 6.28225 37.4055 9.21935 37.4055 12.842475C37.4055 16.465575 34.465 19.4027 30.838 19.4027L28.5555 19.4027C26.81375 19.4027 25.14325 20.09385 23.911625 21.324125L21.807575 23.425825C20.575925 24.6561 19.884 26.32475 19.884 28.0645L19.884 30.3445C19.884 33.9675 16.9436 36.90475 13.31645 36.90475C9.689325 36.90475 6.748925 33.9675 6.748925 30.3445C6.748925 26.72125 9.689325 23.784175 13.31645 23.784175L15.6325 23.784175C17.3743 23.784175 19.044775 23.093025 20.27645 21.86275L22.346775 19.7947C23.578425 18.564425 24.270375 16.8958 24.270375 15.155925L24.270375 12.842475C24.270375 9.21935 27.21075 6.28225 30.838 6.28225Z" fill="#CDCDC8"></path> <path d="M31.2105 6.28225C27.58325 6.28225 24.642875 9.21935 24.642875 12.842475C24.642875 16.465575 27.58325 19.4027 31.2105 19.4027L33.49275 19.4027C35.2345 19.4027 36.905 20.09385 38.13675 21.324125L40.24075 23.425825C41.47225 24.6561 42.16425 26.32475 42.16425 28.0645L42.16425 30.3445C42.16425 33.9675 45.10475 36.90475 48.73175 36.90475C52.359 36.90475 55.29925 33.9675 55.29925 30.3445C55.29925 26.72125 52.359 23.784175 48.73175 23.784175L46.41575 23.784175C44.674 23.784175 43.0035 23.093025 41.77175 21.86275L39.7015 19.7947C38.46975 18.564425 37.778 16.8958 37.778 15.155925L37.778 12.842475C37.778 9.21935 34.8375 6.28225 31.2105 6.28225Z" fill="#CDCDC8"></path> <path d="M37.4055 48.186C37.4055 51.80925 34.465 54.74625 30.838 54.74625C27.21075 54.74625 24.270375 51.80925 24.270375 48.186L24.270375 45.90625C24.270375 44.1665 23.578425 42.49775 22.346775 41.2675L20.24275 39.16575C19.0111 37.9355 17.340625 37.24425 15.5988 37.24425L13.31645 37.24425C9.6893 37.24425 6.748925 34.30725 6.748925 30.684C6.748925 27.061 9.689325 24.1239 13.31645 24.1239C16.9436 24.1239 19.884 27.061 19.884 30.684L19.884 32.9975C19.884 34.7375 20.575925 36.406 21.807575 37.63625L23.877925 39.7045C25.1095 40.93475 26.78 41.62575 28.52175 41.62575L30.838 41.62575C34.465 41.62575 37.4055 44.563 37.4055 48.186Z" fill="#CDCDC8"></path> <path d="M24.64285 48.186C24.64285 51.80925 27.58325 54.74625 31.2105 54.74625C34.8375 54.74625 37.778 51.80925 37.778 48.186L37.778 45.90625C37.778 44.1665 38.46975 42.49775 39.7015 41.2675L41.8055 39.16575C43.03725 37.9355 44.70775 37.24425 46.4495 37.24425L48.73175 37.24425C52.359 37.24425 55.29925 34.30725 55.29925 30.684C55.29925 27.061 52.359 24.1239 48.73175 24.1239C45.10475 24.1239 42.16425 27.061 42.16425 30.684L42.16425 32.9975C42.16425 34.7375 41.47225 36.406 40.24075 37.63625L38.1705 39.7045C36.93875 40.93475 35.26825 41.62575 33.5265 41.62575L31.2105 41.62575C27.58325 41.62575 24.64285 44.563 24.64285 48.186Z" fill="#CDCDC8"></path> </g> </svg>